<svg width="29" height="33" viewBox="0 0 29 33" fill="none" xmlns="http://www.w3.org/2000/svg">
<path fill-rule="evenodd" clip-rule="evenodd" d="M0.117462 4.10895C0.117462 2.1537 1.79128 0.568649 3.85603 0.568649H17.2667C17.774 0.568649 18.2594 0.76387 18.6117 1.1095L27.6324 9.96027C27.9687 10.2903 28.1567 10.731 28.1567 11.1896V28.8911C28.1567 30.8463 26.4829 32.4314 24.4181 32.4314H3.85602C1.79127 32.4314 0.117462 30.8463 0.117462 28.8911V4.10895ZM15.3974 4.10895H3.85602V28.8911H24.4181V12.9597H19.136C17.0712 12.9597 15.3974 11.3747 15.3974 9.41941V4.10895ZM19.136 6.72184L21.8853 9.41941H19.136V6.72184Z" fill="#9C4AC3"/>
</svg>
