<svg width="42" height="31" viewBox="0 0 42 31" fill="none" xmlns="http://www.w3.org/2000/svg">
<path fill-rule="evenodd" clip-rule="evenodd" d="M23.8754 0.857524C24.8556 -0.171708 26.4846 -0.211439 27.5138 0.768782L41.0249 13.6364C41.5349 14.1222 41.8235 14.7957 41.8235 15.5C41.8235 16.2043 41.5349 16.8779 41.0249 17.3636L27.5138 30.2312C26.4846 31.2115 24.8556 31.1717 23.8754 30.1425C22.8952 29.1133 22.9349 27.4843 23.9641 26.5041L32.8162 18.0735H3.22059C1.79927 18.0735 0.647064 16.9213 0.647064 15.5C0.647064 14.0787 1.79927 12.9265 3.22059 12.9265H32.8162L23.9641 4.49596C22.9349 3.51574 22.8952 1.88676 23.8754 0.857524Z" fill="#9C4AC3"/>
</svg>
